<svg width="172" height="21" viewBox="0 0 172 21" fill="none" xmlns="http://www.w3.org/2000/svg">
<g clip-path="url(#clip0_1_136)">
<path d="M6.95128 3.84735L1.3504 8.87083H4.08443L6.95128 5.68307V3.84735Z" fill="#0F335B"/>
<path d="M6.95127 1.98962H0.0110474V8.87079H1.30611L6.95127 2.06657V1.98962Z" fill="#0F335B"/>
<path d="M6.95129 7.15601L4.91461 8.8708H6.95129V7.15601Z" fill="#0F335B"/>
<path d="M6.92914 12.7731V10.091L2.64547 13.8393L6.53066 9.50836H4.16191L1.48324 11.7728L3.50885 9.50836H0V16.3895H6.92914V13.3007L4.84819 15.1034L6.92914 12.7731Z" fill="#0F335B"/>
<path d="M11.3346 9.50836L7.65973 12.6741V15.5102L13.0392 9.50836H11.3346Z" fill="#0F335B"/>
<path d="M7.65973 11.9706L9.86245 9.50836H7.65973V11.9706Z" fill="#0F335B"/>
<path d="M7.65973 16.3895H14.5889V9.65125L7.65973 15.5211V16.3895Z" fill="#0F335B"/>
<path d="M8.51202 0H16.703V8.1343H8.51202V0Z" fill="#0F335B"/>
<path d="M23.8868 8.31018C23.8868 7.04607 23.8646 5.79295 23.8314 4.52884C22.5585 4.52884 20.9203 4.60578 19.8909 4.7267C19.9462 4.53983 19.9794 4.34197 19.9794 4.14411C19.9794 3.95724 19.9462 3.78136 19.8909 3.57251C21.4737 3.62747 23.0566 3.66045 24.6394 3.66045C26.2223 3.66045 27.8052 3.62747 29.388 3.57251C29.3327 3.77037 29.2995 3.95724 29.2995 4.1551C29.2995 4.34197 29.3327 4.53983 29.388 4.7267C28.3586 4.59479 26.7204 4.52884 25.4475 4.52884C25.4143 5.79295 25.3921 7.04607 25.3921 8.31018V11.454C25.3921 13.0259 25.4696 14.6197 25.536 16.1916C25.2261 16.1367 24.9272 16.1037 24.6394 16.1037C24.3406 16.1037 24.0528 16.1367 23.7429 16.1916C23.8203 14.6197 23.8868 13.0259 23.8868 11.454V8.31018Z" fill="#0F335B"/>
<path d="M30.4728 7.61766C30.4728 5.93584 30.4395 3.58349 30.3289 2.35236C30.6056 2.40732 30.8823 2.44029 31.159 2.44029C31.4357 2.44029 31.7125 2.40732 31.9892 2.35236C31.8785 3.5725 31.8453 5.93584 31.8453 7.52972V8.91475H31.8785C32.5537 7.87048 33.4946 7.26591 34.8228 7.26591C36.1843 7.26591 37.7672 7.92544 37.7672 10.4427C37.7672 11.4869 37.6897 12.5862 37.6897 13.8283C37.6897 14.6307 37.6897 15.4002 37.7229 16.1806C37.4462 16.1257 37.2137 16.0927 36.9481 16.0927C36.6935 16.0927 36.45 16.1257 36.1954 16.1806C36.2286 14.8506 36.3282 13.5095 36.3282 12.1025V10.9923C36.3282 9.20055 35.5423 8.21124 34.3247 8.21124C32.6091 8.21124 31.8453 9.31047 31.8453 11.2121C31.8453 12.5972 31.8785 14.9605 31.9892 16.1806C31.7125 16.1257 31.4357 16.0927 31.159 16.0927C30.8823 16.0927 30.6056 16.1257 30.3289 16.1806C30.4395 14.9605 30.4728 12.5972 30.4728 10.9153V7.61766Z" fill="#0F335B"/>
<path d="M44.0211 7.26593C46.6002 7.26593 47.8288 8.96974 47.8288 10.9923C47.8288 11.2342 47.8067 11.465 47.7956 11.7068C46.4673 11.6848 45.1612 11.6519 43.8551 11.6519C43.047 11.6519 42.2501 11.6848 41.4421 11.7068C41.4199 11.8937 41.4199 12.0586 41.4199 12.2125C41.4199 14.1141 42.56 15.5981 44.6078 15.5981C45.5818 15.5981 46.7219 15.0265 47.3639 14.301L47.4525 14.356L47.3418 15.2463C46.6002 15.8289 45.4047 16.3566 44.2646 16.3566C41.6192 16.3566 39.7928 14.4879 39.7928 12.0586C39.8039 9.11264 41.3092 7.26593 44.0211 7.26593ZM41.4753 11.0143C42.2279 11.0363 43.0913 11.0693 43.8661 11.0693C44.6742 11.0693 45.5375 11.0363 46.3124 11.0143C46.3124 9.71721 45.9582 7.84852 44.0543 7.84852C42.2501 7.84852 41.5749 9.69523 41.4753 11.0143Z" fill="#0F335B"/>
<path d="M64.4875 8.31018C64.4875 6.73829 64.41 5.14441 64.3436 3.57251C64.6535 3.62747 64.9524 3.66045 65.2402 3.66045C65.539 3.66045 65.8268 3.62747 66.1368 3.57251C66.0593 5.14441 65.9929 6.73829 65.9929 8.31018V11.454C65.9929 13.0259 66.0703 14.6197 66.1368 16.1916C65.8268 16.1367 65.528 16.1037 65.2402 16.1037C64.9413 16.1037 64.6535 16.1367 64.3436 16.1916C64.4211 14.6197 64.4875 13.0259 64.4875 11.454V9.80513C63.2035 9.78315 61.9306 9.77215 60.6466 9.77215C59.3626 9.77215 58.0897 9.79414 56.8057 9.80513V11.454C56.8057 13.0259 56.8831 14.6197 56.9496 16.1916C56.6396 16.1367 56.3408 16.1037 56.053 16.1037C55.7541 16.1037 55.4663 16.1367 55.1453 16.1916C55.2228 14.6197 55.2892 13.0259 55.2892 11.454V8.31018C55.2892 6.73829 55.2117 5.14441 55.1453 3.57251C55.4553 3.62747 55.7541 3.66045 56.053 3.66045C56.3518 3.66045 56.6396 3.62747 56.9496 3.57251C56.8721 5.14441 56.8057 6.73829 56.8057 8.31018V8.94773C58.0897 8.96972 59.3626 9.00269 60.6466 9.00269C61.9306 9.00269 63.2035 8.96972 64.4875 8.94773V8.31018Z" fill="#0F335B"/>
<path d="M69.38 8.33218C70.4869 7.50776 71.3724 7.27692 72.3465 7.27692C74.1175 7.27692 75.324 8.35416 75.324 9.98102C75.324 11.3551 75.2465 12.7071 75.2465 14.235C75.2465 14.8396 75.2465 15.5871 75.966 15.5871C76.0767 15.5871 76.2206 15.5871 76.3534 15.5102V15.9059C76.0988 16.0158 75.6561 16.1587 75.1801 16.1587C74.3831 16.1587 73.9847 15.6531 73.9072 15.0265C73.0217 15.9059 72.269 16.3566 71.0182 16.3566C69.7895 16.3566 68.572 15.4992 68.572 14.1031C68.572 12.6412 69.5682 11.8497 71.1621 11.5969C73.8297 11.1792 73.9182 11.0253 73.9182 10.3218C73.9182 9.10164 73.3648 8.0134 71.8926 8.0134C70.9186 8.0134 69.9998 8.47508 69.5792 9.25553H69.38V8.33218ZM73.9293 11.5749C72.6564 11.9926 70.0884 11.8717 70.0884 13.8613C70.0884 15.0155 70.8854 15.5981 71.6934 15.5981C72.6342 15.5981 73.4423 14.9935 73.8629 14.323L73.9293 11.5749Z" fill="#0F335B"/>
<path d="M82.4635 7.26593C83.8028 7.26593 84.9651 7.65066 85.43 8.06837C85.2639 8.43111 85.12 8.83783 85.0204 9.27752H84.8765C84.5223 8.65096 83.6811 7.84852 82.5188 7.84852C80.294 7.84852 79.3863 9.55233 79.3863 11.7948C79.3863 14.301 80.5264 15.5981 82.5742 15.5981C83.5483 15.5981 84.6884 15.0265 85.3414 14.301L85.43 14.356C85.3746 14.6418 85.3414 14.9605 85.3193 15.2463C84.5777 15.8289 83.3822 16.3566 82.2421 16.3566C80.1058 16.3566 77.7703 15.0815 77.7703 11.8058C77.7703 8.65096 80.1058 7.26593 82.4635 7.26593Z" fill="#0F335B"/>
<path d="M87.4225 7.61766C87.4225 5.93584 87.3893 3.58349 87.2786 2.35236C87.5553 2.40732 87.832 2.44029 88.1088 2.44029C88.3855 2.44029 88.6622 2.40732 88.9389 2.35236C88.8282 3.5725 88.795 5.93584 88.795 7.61766V10.9483C88.795 11.1682 88.8725 11.3001 89.0164 11.3001C89.2046 11.3001 89.437 11.1022 89.7359 10.8824C90.1786 10.5526 91.9829 8.76086 93.123 7.46377C93.3222 7.51873 93.5657 7.55171 93.8203 7.55171C94.0749 7.55171 94.3184 7.51873 94.739 7.46377C93.2115 8.68391 91.7726 9.91505 90.4996 11.1352C91.9054 12.817 93.4218 14.5208 94.9383 16.2026C94.5177 16.1477 94.2077 16.1147 93.8867 16.1147C93.5768 16.1147 93.2558 16.1477 92.9459 16.2026C91.8833 14.8176 90.1122 12.762 89.2488 11.8497C89.1714 11.7618 89.0607 11.6628 88.9721 11.6628C88.8614 11.6628 88.784 11.7398 88.784 11.8827V12.9819C88.784 14.0591 88.8172 15.1254 88.9279 16.2026C88.6511 16.1477 88.3744 16.1147 88.0977 16.1147C87.821 16.1147 87.5442 16.1477 87.2675 16.2026C87.3782 14.9825 87.4114 12.6191 87.4114 10.9373V7.61766H87.4225Z" fill="#0F335B"/>
<path d="M99.9302 7.26593C102.509 7.26593 103.738 8.96974 103.738 10.9923C103.738 11.2342 103.716 11.465 103.705 11.7068C102.376 11.6848 101.07 11.6519 99.7641 11.6519C98.9561 11.6519 98.1591 11.6848 97.3511 11.7068C97.329 11.8937 97.329 12.0586 97.329 12.2125C97.329 14.1141 98.4691 15.5981 100.517 15.5981C101.491 15.5981 102.631 15.0265 103.273 14.301L103.362 14.356L103.251 15.2463C102.52 15.8289 101.325 16.3566 100.174 16.3566C97.5282 16.3566 95.7018 14.4879 95.7018 12.0586C95.7129 9.11264 97.2294 7.26593 99.9302 7.26593ZM97.3954 11.0143C98.1481 11.0363 99.0114 11.0693 99.7863 11.0693C100.594 11.0693 101.458 11.0363 102.232 11.0143C102.232 9.71721 101.878 7.84852 99.9744 7.84852C98.1702 7.84852 97.4839 9.69523 97.3954 11.0143Z" fill="#0F335B"/>
<path d="M107.258 5.00153H107.346C107.269 5.91389 107.236 6.81525 107.203 7.70563C107.457 7.70563 108.309 7.68364 109.151 7.65067C109.129 7.78258 109.129 7.90349 109.129 8.0354C109.129 8.16731 109.129 8.28822 109.151 8.42013C108.509 8.38715 107.645 8.38715 107.203 8.38715C107.169 8.57402 107.07 11.443 107.07 13.0259C107.07 14.3999 107.103 15.785 108.564 15.785C108.763 15.785 109.151 15.73 109.394 15.6531V16.0927C108.974 16.2356 108.442 16.3676 107.977 16.3676C106.45 16.3676 105.708 15.5102 105.708 14.0812C105.708 12.7511 105.819 11.1022 105.841 8.37616C105.476 8.37616 105.066 8.37616 104.59 8.40914C104.612 8.26624 104.624 8.13433 104.624 7.99143C104.624 7.85952 104.601 7.7496 104.59 7.62868C105.144 7.66166 105.542 7.68365 105.808 7.68365C105.786 7.21098 105.775 6.41953 105.741 5.63908L107.258 5.00153Z" fill="#0F335B"/>
<path d="M112.372 5.00153H112.46C112.383 5.91389 112.349 6.81525 112.316 7.70563C112.571 7.70563 113.423 7.68364 114.264 7.65067C114.242 7.78258 114.242 7.90349 114.242 8.0354C114.242 8.16731 114.242 8.28822 114.264 8.42013C113.622 8.38715 112.759 8.38715 112.316 8.38715C112.283 8.57402 112.183 11.443 112.183 13.0259C112.183 14.3999 112.217 15.785 113.678 15.785C113.877 15.785 114.264 15.73 114.508 15.6531V16.0927C114.087 16.2356 113.556 16.3676 113.091 16.3676C111.564 16.3676 110.833 15.5102 110.833 14.0812C110.833 12.7511 110.944 11.1022 110.966 8.37616C110.601 8.37616 110.191 8.37616 109.715 8.40914C109.737 8.26624 109.748 8.13433 109.748 7.99143C109.748 7.85952 109.726 7.7496 109.715 7.62868C110.269 7.66166 110.667 7.68365 110.933 7.68365C110.911 7.21098 110.899 6.41953 110.855 5.63908L112.372 5.00153Z" fill="#0F335B"/>
<path d="M131.975 5.80394C131.222 4.91357 129.783 4.0122 127.924 4.0122C124.869 4.0122 122.533 5.82593 122.533 9.88208C122.533 13.4656 124.559 15.653 128.023 15.653C129.075 15.653 130.337 15.4552 130.968 15.0704C130.99 14.334 131.001 13.6085 131.001 12.861C131.001 12.0036 130.945 11.1242 130.912 10.3548C131.156 10.4097 131.499 10.4427 131.798 10.4427C132.074 10.4427 132.351 10.4207 132.595 10.3548C132.561 10.9044 132.517 12.0915 132.517 14.0701C132.517 14.5428 132.539 15.0595 132.539 15.5541C131.488 15.9169 129.285 16.4335 127.846 16.4335C123.463 16.4335 120.74 14.1691 120.74 9.89308C120.74 5.74898 123.574 3.35266 127.935 3.35266C130.414 3.35266 131.765 3.95724 132.628 4.40792C132.44 4.73769 132.263 5.36425 132.207 5.81494H131.975V5.80394Z" fill="#0F335B"/>
<path d="M139.557 8.94775C139.424 8.80485 139.026 8.65096 138.65 8.65096C137.476 8.65096 136.768 9.76118 136.768 11.1902C136.768 14.367 136.768 15.3343 136.845 16.1807C136.602 16.1257 136.347 16.0927 136.115 16.0927C135.86 16.0927 135.617 16.1257 135.34 16.1807C135.417 15.2793 135.417 13.8613 135.417 11.8167V11.2341C135.417 10.2888 135.417 9.0247 135.34 7.4528C135.617 7.50776 135.86 7.54074 136.115 7.54074C136.358 7.54074 136.613 7.50776 136.845 7.4528C136.757 8.33218 136.757 8.77187 136.757 9.22256L136.79 9.24454C137.487 7.92547 138.373 7.26593 139.214 7.26593C139.435 7.26593 139.568 7.28791 139.801 7.37585C139.668 7.67264 139.668 8.36516 139.668 8.85981L139.557 8.94775Z" fill="#0F335B"/>
<path d="M145.191 7.26593C147.327 7.26593 149.663 8.48608 149.663 11.8167C149.663 15.1474 147.327 16.3676 145.191 16.3676C143.055 16.3676 140.719 15.1474 140.719 11.8167C140.719 8.49707 143.055 7.26593 145.191 7.26593ZM145.191 15.785C147.361 15.785 148.047 13.8723 148.047 11.8167C148.047 9.77218 147.361 7.84852 145.191 7.84852C143.022 7.84852 142.335 9.77218 142.335 11.8167C142.335 13.8613 143.022 15.785 145.191 15.785Z" fill="#0F335B"/>
<path d="M151.755 10.3547C151.755 9.49732 151.733 8.47504 151.722 7.45276C151.976 7.50772 152.253 7.5407 152.497 7.5407C152.74 7.5407 152.995 7.50772 153.249 7.45276C153.139 8.88176 153.072 10.7395 153.072 12.5312C153.072 13.7953 153.327 14.3999 153.637 14.7406C153.991 15.1254 154.5 15.4222 155.22 15.4222C156.249 15.4222 156.946 14.9055 157.267 14.257C157.633 13.4765 157.655 13.3226 157.655 10.4537C157.655 9.46435 157.655 8.33214 157.622 7.45276C157.876 7.50772 158.12 7.5407 158.396 7.5407C158.673 7.5407 158.917 7.50772 159.149 7.45276C159.038 9.35443 159.016 11.0692 159.016 13.0039C159.016 14.0811 159.038 15.1584 159.094 16.1806C158.861 16.1257 158.618 16.0927 158.374 16.0927C158.131 16.0927 157.898 16.1257 157.655 16.1806C157.688 15.653 157.688 15.1254 157.688 14.6087H157.655C157.024 15.7409 155.939 16.3675 154.788 16.3675C152.873 16.3675 151.711 15.2683 151.711 13.3666C151.7 12.0915 151.755 11.2561 151.755 10.3547Z" fill="#0F335B"/>
<path d="M161.739 12.7731C161.739 11.0912 161.706 8.7389 161.595 7.4528C161.872 7.50776 162.149 7.54074 162.426 7.54074C162.702 7.54074 162.979 7.50776 163.256 7.4528C163.167 8.09035 163.112 8.66195 163.112 9.24454H163.145C163.51 8.47508 164.396 7.26593 166.255 7.26593C168.137 7.26593 170.008 8.61798 170.008 11.7618C170.008 14.8726 167.96 16.3675 166.034 16.3675C164.673 16.3675 163.71 15.73 163.145 14.5758H163.112V15.73C163.112 17.4118 163.145 19.7642 163.256 20.9953C162.979 20.9403 162.702 20.9074 162.426 20.9074C162.149 20.9074 161.872 20.9403 161.595 20.9953C161.706 19.7752 161.739 17.4118 161.739 15.73V12.7731ZM165.835 8.03539C163.842 8.03539 163.09 9.79416 163.09 11.8937C163.09 14.3999 164.031 15.697 165.779 15.697C167.539 15.697 168.37 13.9602 168.37 11.7508C168.381 8.81584 167.03 8.03539 165.835 8.03539Z" fill="#0F335B"/>
<path d="M171.004 3.57251C171.557 3.57251 172 4.0122 172 4.56181C172 5.11143 171.557 5.55112 171.004 5.55112C170.45 5.55112 170.007 5.11143 170.007 4.56181C170.007 4.0122 170.45 3.57251 171.004 3.57251ZM171.004 5.4412C171.491 5.4412 171.878 5.04548 171.878 4.55082C171.878 4.06716 171.491 3.66045 171.004 3.66045C170.517 3.66045 170.129 4.05617 170.129 4.55082C170.118 5.04548 170.505 5.4412 171.004 5.4412ZM170.638 4.27602C170.638 4.1551 170.616 4.02319 170.605 3.92426C170.683 3.93526 170.76 3.93525 170.838 3.93525C170.915 3.93525 170.992 3.92426 171.059 3.92426C171.258 3.92426 171.413 4.0122 171.413 4.19907C171.413 4.42991 171.17 4.52884 171.037 4.53983C171.181 4.71571 171.413 5.04548 171.524 5.13341V5.14441C171.491 5.13341 171.446 5.13341 171.413 5.13341C171.38 5.13341 171.336 5.14441 171.302 5.14441C171.17 4.94654 171.015 4.74868 170.86 4.55082H170.771V4.74868C170.771 4.88059 170.782 5.0125 170.793 5.14441C170.76 5.13341 170.727 5.13341 170.705 5.13341C170.671 5.13341 170.638 5.14441 170.616 5.14441C170.627 5.0125 170.638 4.89158 170.638 4.75968V4.298V4.27602ZM170.771 4.48487C170.793 4.48487 170.838 4.49586 170.893 4.49586C171.081 4.49586 171.247 4.41892 171.247 4.22105C171.247 4.07815 171.136 3.99022 170.992 3.99022C170.926 3.99022 170.86 4.00121 170.804 4.00121C170.793 4.08915 170.782 4.17708 170.782 4.26502L170.771 4.48487Z" fill="#0F335B"/>
</g>
<defs>
<clipPath id="clip0_1_136">
<rect width="172" height="20.9953" fill="white"/>
</clipPath>
</defs>
</svg>
